Coordinates
version=1
nRows=6
nColumns=36
inDegrees=yes

Units are S.I. units (second, meters, Newtons, ...)
If the header above contains a line with 'inDegrees', this indicates whether rotational values are in degrees (yes) or radians (no).

endheader
time	pelvis_tilt	pelvis_list	pelvis_rotation	pelvis_tx	pelvis_ty	pelvis_tz	hip_flexion_r	hip_adduction_r	hip_rotation_r	knee_angle_r	knee_angle_r_beta	ankle_angle_r	subtalar_angle_r	mtp_angle_r	hip_flexion_l	hip_adduction_l	hip_rotation_l	knee_angle_l	knee_angle_l_beta	ankle_angle_l	subtalar_angle_l	mtp_angle_l	lumbar_extension	lumbar_bending	lumbar_rotation	arm_flex_r	arm_add_r	arm_rot_r	elbow_flex_r	pro_sup_r	arm_flex_l	arm_add_l	arm_rot_l	elbow_flex_l	pro_sup_l
      0.00000000	      2.79197205	     -1.37236121	     -2.56635011	     -0.93484751	      1.27088735	     -0.01099685	      1.83788184	      0.52717835	     -0.70405582	     10.91617909	      0.19052327	      1.13131784	    -22.45160487	     -5.62182991	      0.21886182	     -5.11267821	      1.03696057	     11.10898574	      0.19388838	     11.92402551	     -4.23265521	     -5.62182991	    -20.86375744	      0.96271611	      0.67795143	      5.79658080	     -8.98032076	     19.91791594	     22.00231317	     70.13799773	      1.39925651	     -7.22733394	     13.90786584	     22.21372197	     66.05370772
      0.00416670	      0.81695740	     -0.84519459	     -2.07192413	     -0.93501457	      1.27042814	     -0.01203427	      4.86607619	      0.52492421	      0.32122829	     12.69482010	      0.22156641	      5.41033990	    -20.79244767	     -6.60280644	      3.16055969	     -3.91976847	      3.76138024	     12.22096869	      0.21329614	     12.00672530	     -5.58140017	     -6.60280644	    -18.45352029	      0.58887170	      0.57391869	      4.79671664	     -7.50156224	     13.31517690	     21.09594616	     75.15204472	      1.18867916	     -6.02131334	      9.45773750	     21.41910112	     70.43442340
      0.00833330	      0.08765534	     -0.32460546	     -2.11167252	     -0.93341654	      1.26871391	     -0.01172832	      5.23480428	      0.07642405	      0.07697442	     11.88660640	      0.20746042	      5.18974985	    -20.84393718	     -6.63600409	      3.79248409	     -3.44786479	      4.10844011	     12.03224896	      0.21000236	     11.64107356	     -6.22670226	     -6.63600409	    -17.22451918	     -0.18396150	      0.57713124	      4.15222555	     -6.96409004	     12.64815970	     20.90529271	     74.43098087	      0.85890770	     -6.08182997	      9.13613264	     21.34037911	     70.01710298
      0.01250000	      0.99693936	     -0.18059181	     -2.06180816	     -0.93456270	      1.27085377	     -0.01116604	      4.12774004	     -0.10746968	      0.42709012	     11.56734374	      0.20188823	      4.85464069	    -21.42825342	     -6.67540846	      2.53301920	     -3.13016087	      5.34670641	     11.55784895	      0.20172252	     10.88187737	     -8.25829033	     -6.67540846	    -18.34357497	     -0.43174545	      0.74538096	      4.26029898	     -6.54417363	     10.69338290	     20.38598179	     73.38844501	      1.26632878	     -6.09585446	      8.60317499	     20.88781201	     69.70006120
      0.01666670	      1.83816859	     -0.21645365	     -1.98924262	     -0.93684942	      1.27083279	     -0.01000848	      3.11192949	     -0.04732694	      0.31463005	     11.22731763	      0.19595366	      3.98016775	    -22.60384156	     -6.72773056	      1.51681256	     -3.04358893	      5.91260265	     11.26408503	      0.19659537	     10.52360117	     -9.37389742	     -6.72773056	    -19.76666494	     -0.38401078	      1.10469962	      3.90499898	     -6.55481781	      8.42241281	     21.79985760	     73.12316070	      1.46486254	     -6.18174315	      8.36945233	     21.93364280	     70.25491564
      0.02083330	      2.40760772	     -0.19654038	     -1.94448489	     -0.93462854	      1.27456431	     -0.01098278	      2.24912729	     -0.07908364	      0.41775741	     10.70545878	      0.18684550	      3.16440782	    -23.31972033	     -6.83336366	      0.78632408	     -2.94337833	      6.41894059	     11.05957130	      0.19302593	     10.07773875	    -10.24573352	     -6.83336366	    -20.41818362	     -0.33780090	      1.34256563	      3.77755704	     -6.57321639	      7.61025144	     22.15753014	     73.12803480	      1.66477545	     -6.13297442	      8.40039546	     22.02897486	     70.66113352
